#!OML:ASF Y:\EmotionMaleHayes\Project 1\Capture day 1\Session 1\Male1.ASF
:FULLY-SPECIFIED
:DEGREES
253
root 11.3086 17.1214 -0.220616 326.521 -70.8105 20.7464
lowerback 13.1245 0.534611 -7.01688
upperback 0.187128 -0.389436 -0.0157204
thorax -7.14512 0.0392318 4.02854
lowerneck -28.0689 5.00475 4.7229
upperneck 14.984 7.36467 -11
head 9.97013 2.30418 -3.48076
rclavicle 3.57812e-014 7.95139e-015
rhumerus -78.7747 -16.0637 -19.194
rradius 32.0911
rwrist -31.5768
rhand -19.2247 -43.7574
rfingers 7.12502
rthumb 7.08823 -73.6187
lclavicle 3.57812e-014 7.95139e-015
lhumerus -39.3198 14.5913 17.1472
lradius 78.6754
lwrist 39.235
lhand -46.9973 -20.8972
lfingers 7.12502
lthumb -19.7047 8.12411
rfemur -14.8503 -9.46288 -0.0214138
rtibia 39.1059
rfoot -12.256 -25.6157
rtoes 36.063
lfemur 16.0925 26.3608 -19.9996
ltibia 36.5977
lfoot -16.5048 7.36384
ltoes -4.26483
254
root 11.4982 16.9542 -0.251997 328.25 -69.2194 19.7694
lowerback 13.2976 0.501292 -7.7545
upperback 0.126243 -0.582621 -0.225461
thorax -7.28337 -0.0268415 4.26016
lowerneck -27.6331 5.39784 5.36321
upperneck 14.2327 7.73167 -11.6375
head 9.72286 2.46972 -3.74187
rclavicle -1.32192e-014 -3.29983e-014
rhumerus -78.1987 -16.1414 -18.298
rradius 32.0609
rwrist -31.0463
rhand -19.4525 -44.1472
rfingers 7.12502
rthumb 6.86835 -74.0158
lclavicle -1.32192e-014 -3.29983e-014
lhumerus -40.4216 15.2636 17.4278
lradius 78.887
lwrist 40.4417
lhand -48.2293 -21.9445
lfingers 7.12502
lthumb -20.8887 6.95088
rfemur -16.2286 -8.91158 -1.08325
rtibia 39.0726
rfoot -12.9384 -25.7693
rtoes 35.0624
lfemur 15.1214 25.0478 -21.623
ltibia 35.5177
lfoot -19.813 5.32599
ltoes -4.90569
255
root 11.6946 16.7856 -0.284104 328.885 -67.3349 19.9844
lowerback 13.4089 0.478246 -8.94368
upperback 0.180714 -0.839627 -0.573294
thorax -7.24832 -0.122578 4.60857
lowerneck -27.0258 5.79134 6.11846
upperneck 13.0775 8.05976 -12.4925
head 9.32811 2.61696 -4.10089
rclavicle -1.1281e-014 3.89618e-014
rhumerus -77.5898 -16.5057 -17.2823
rradius 32.0244
rwrist -30.6495
rhand -19.4085 -44.1914
rfingers 7.12502
rthumb 6.91086 -74.0586
lclavicle -1.1281e-014 3.89618e-014
lhumerus -41.2948 16.3807 17.7508
lradius 78.9333
lwrist 41.2159
lhand -48.6639 -22.7543
lfingers 7.12502
lthumb -21.3062 6.09451
rfemur -17.6085 -8.53518 -2.84006
rtibia 39.0705
rfoot -13.5048 -25.6412
rtoes 33.8153
lfemur 13.6813 23.6256 -23.962
ltibia 35.1208
lfoot -22.6488 3.49879
ltoes -4.14009
256
root 11.8957 16.6173 -0.322637 329.416 -65.4814 20.2975
lowerback 13.5721 0.474458 -10.1263
upperback 0.318692 -1.07674 -0.926928
thorax -7.1484 -0.217168 4.94095
lowerneck -26.7392 6.18102 6.54005
upperneck 12.04 8.43614 -13.0427
head 9.01122 2.78996 -4.28863
rclavicle -1.74931e-014 2.0276e-014
rhumerus -76.8973 -17.2817 -16.0157
rradius 31.8534
rwrist -30.3528
rhand -19.2365 -43.7555
rfingers 7.12502
rthumb 7.07686 -73.6172
lclavicle -1.74931e-014 2.0276e-014
lhumerus -41.8677 17.512 18.2885
lradius 78.9105
lwrist 41.5517
lhand -48.7401 -23.2236
lfingers 7.12502
lthumb -21.3794 5.61688
rfemur -19.0351 -8.25449 -4.61913
rtibia 39.1838
rfoot -14.1302 -25.26
rtoes 33.1712
lfemur 12.2059 22.4211 -26.1726
ltibia 34.9151
lfoot -24.7419 2.10165
ltoes -4.16029
257
root 12.0963 16.4485 -0.37686 330.089 -63.6236 20.2717
lowerback 13.9944 0.491463 -11.2499
upperback 0.477787 -1.31282 -1.24563
thorax -7.16494 -0.309363 5.27995
lowerneck -26.553 6.50779 6.81743
upperneck 11.2656 8.76482 -13.3997
head 8.78452 2.94599 -4.39581
rclavicle 1.57785e-014 -7.95139e-016
rhumerus -76.3015 -18.3123 -14.4841
rradius 31.6734
rwrist -30.1999
rhand -19.2682 -43.5702
rfingers 7.12502
rthumb 7.04626 -73.4329
lclavicle 1.57785e-014 -7.95139e-016
lhumerus -42.176 18.3913 19.1084
lradius 78.9289
lwrist 41.4588
lhand -48.7759 -23.0891
lfingers 7.12502
lthumb -21.4138 5.74754
rfemur -20.2761 -8.1098 -6.1683
rtibia 39.468
rfoot -15.0124 -24.9529
rtoes 33.2856
lfemur 10.8744 21.4843 -27.9428
ltibia 34.9035
lfoot -26.5269 0.483407
ltoes -2.27402
258
root 12.2957 16.2856 -0.441995 330.792 -61.8152 20.0076
lowerback 14.6567 0.563203 -12.1668
upperback 0.656709 -1.4903 -1.58555
thorax -7.3032 -0.375225 5.47212
lowerneck -26.4789 6.69206 7.03542
upperneck 10.7839 8.93699 -13.6881
head 8.6554 3.02254 -4.49859
rclavicle -4.86401e-014 -7.41467e-014
rhumerus -76.021 -19.5338 -12.6573
rradius 31.5463
rwrist -30.0501
rhand -19.4033 -43.7332
rfingers 7.12502
rthumb 6.91582 -73.6002
lclavicle -4.86401e-014 -7.41467e-014
lhumerus -42.1502 18.9676 20.1366
lradius 79.043
lwrist 41.4203
lhand -48.4138 -22.5253
lfingers 7.12502
lthumb -21.066 6.35048
rfemur -21.3603 -7.92926 -7.44547
rtibia 39.9034
rfoot -15.7874 -24.9748
rtoes 32.8069
lfemur 9.10805 20.6292 -29.6054
ltibia 35.8192
lfoot -28.0516 -0.0567795
ltoes 0.488898
259
root 12.4937 16.1353 -0.514485 332.019 -60.0828 19.0781
lowerback 15.4077 0.635433 -12.6069
upperback 0.840108 -1.60482 -1.86972
thorax -7.50193 -0.420779 5.44697
lowerneck -26.3325 6.74468 7.04465
upperneck 10.2543 8.97725 -13.8666
head 8.46892 3.0448 -4.55065
rclavicle -1.63485e-014 -1.75924e-014
rhumerus -76.02 -20.7596 -10.8624
rradius 31.6767
rwrist -30.2009
rhand -19.7323 -44.1573
rfingers 7.12502
rthumb 6.59824 -74.0345
lclavicle -1.63485e-014 -1.75924e-014
lhumerus -41.7438 19.1624 21.439
lradius 79.1398
lwrist 41.3959
lhand -47.7912 -21.5603
lfingers 7.12502
lthumb -20.4677 7.38087
rfemur -22.3854 -7.66956 -8.18433
rtibia 40.4812
rfoot -16.3791 -25.2547
rtoes 32.0144
lfemur 7.20051 19.8186 -30.8891
ltibia 37.0879
lfoot -28.9787 0.548079
ltoes 2.32923
260
root 12.6879 16.0044 -0.594774 333.496 -58.3457 17.7631
lowerback 16.1582 0.648331 -12.7977
upperback 1.09163 -1.74785 -2.09628
thorax -7.62085 -0.49449 5.35165
lowerneck -25.6071 6.84765 7.46034
upperneck 9.01312 8.98517 -14.6346
head 8.0078 3.05455 -4.8754
rclavicle 5.1406e-014 2.35063e-014
rhumerus -75.9338 -22.1135 -9.24686
rradius 31.8544
rwrist -30.2955
rhand -19.9962 -44.4192
rfingers 7.12502
rthumb 6.34347 -74.3042
lclavicle 5.1406e-014 2.35063e-014
lhumerus -41.0787 19.118 22.8021
lradius 79.1697
lwrist 41.6088
lhand -46.9253 -20.1223
lfingers 7.12502
lthumb -19.6355 8.90611
rfemur -23.2514 -7.57182 -8.52672
rtibia 41.1735
rfoot -16.9595 -25.6041
rtoes 31.1328
lfemur 5.08339 18.6175 -32.0397
ltibia 38.9144
lfoot -29.5501 0.898836
ltoes 5.88608
261
root 12.8799 15.8943 -0.672666 334.765 -56.8488 16.4397
lowerback 16.8765 0.652182 -12.7512
upperback 1.49471 -1.84383 -2.32037
thorax -7.56643 -0.571358 5.11598
lowerneck -25.7578 7.03136 7.30078
upperneck 8.70755 9.20869 -14.4492
head 7.93489 3.17572 -4.7447
rclavicle -8.50457e-014 1.51076e-014
rhumerus -75.5985 -23.6365 -7.86645
rradius 31.9562
rwrist -30.4806
rhand -20.3242 -44.5953
rfingers 7.12502
rthumb 6.02682 -74.4896
lclavicle -8.50457e-014 1.51076e-014
lhumerus -40.2585 18.8492 24.0754
lradius 79.2841
lwrist 41.9921
lhand -45.8556 -18.3584
lfingers 7.12502
lthumb -18.6068 10.7717
rfemur -24.0772 -7.73775 -8.5194
rtibia 42.1311
rfoot -18.8542 -25.6865
rtoes 34.0464
lfemur 2.98436 17.229 -33.042
ltibia 41.0308
lfoot -29.8575 1.49354
ltoes 8.33916
262
root 13.062 15.806 -0.747819 336.146 -55.5548 14.5492
lowerback 17.7034 0.685052 -12.1722
upperback 2.04939 -1.80075 -2.52205
thorax -7.44129 -0.607202 4.57933
lowerneck -25.7798 7.23052 7.61456
upperneck 8.4077 9.37248 -14.6594
head 7.88579 3.25425 -4.8388
rclavicle -5.46937e-014 -5.96354e-014
rhumerus -75.4237 -24.6986 -7.2935
rradius 32.5873
rwrist -31.8189
rhand -20.8953 -45.3838
rfingers 7.12502
rthumb 5.47543 -75.293
lclavicle -5.46937e-014 -5.96354e-014
lhumerus -38.649 19.4963 25.4597
lradius 78.3733
lwrist 40.8987
lhand -44.2254 -16.8546
lfingers 7.12502
lthumb -17.0381 12.4182
rfemur -24.4572 -7.94875 -7.86218
rtibia 42.9692
rfoot -19.7079 -25.9874
rtoes 34.2203
lfemur 1.35728 15.8408 -33.2827
ltibia 42.9994
lfoot -29.868 2.18018
ltoes 8.64825
263
root 13.2321 15.7423 -0.822868 337.727 -54.1822 11.9515
lowerback 18.8846 0.668385 -11.0457
upperback 2.62526 -1.75199 -2.68908
thorax -7.49936 -0.641651 3.77949
lowerneck -25.9612 7.29534 8.06144
upperneck 8.52621 9.38349 -15.0262
head 8.0022 3.23145 -5.03694
rclavicle 6.99846e-014 1.47101e-014
rhumerus -75.5558 -25.4242 -7.01053
rradius 33.5802
rwrist -33.6273
rhand -21.2878 -46.3352
rfingers 7.12502
rthumb 5.09644 -76.2539
lclavicle 6.99846e-014 1.47101e-014
lhumerus -37.0014 18.0827 26.8209
lradius 78.1672
lwrist 41.2532
lhand -43.2016 -16.0319
lfingers 7.12502
lthumb -16.0525 13.3231
rfemur -24.0122 -8.20693 -6.5796
rtibia 43.3236
rfoot -20.1109 -26.59
rtoes 34.72
lfemur 0.399883 14.3761 -32.735
ltibia 44.6573
lfoot -29.6969 2.66331
ltoes 7.40811
